<mxfile host="app.diagrams.net" modified="2021-07-25T23:54:42.732Z" agent="5.0 (Macintosh; Intel Mac OS X 10_13_6) AppleWebKit/537.36 (KHTML, like Gecko) Chrome/91.0.4472.164 Safari/537.36" etag="j7JvG1BuNM-HRd21I4s8" version="14.8.3" type="github">
  <diagram id="ePEJdV0YgzogrFHqsuhH" name="Page-1">
    <mxGraphModel dx="946" dy="483" grid="1" gridSize="10" guides="1" tooltips="1" connect="1" arrows="1" fold="1" page="1" pageScale="1" pageWidth="850" pageHeight="1100" math="0" shadow="0">
      <root>
        <mxCell id="0" />
        <mxCell id="1" parent="0" />
        <mxCell id="ax_5soUSioLsxwY-F-cs-4" value="" style="shape=cloud;whiteSpace=wrap;html=1;" vertex="1" parent="1">
          <mxGeometry x="435" y="130" width="270" height="220" as="geometry" />
        </mxCell>
        <mxCell id="ax_5soUSioLsxwY-F-cs-6" value="Ethereum Private Network" style="text;html=1;strokeColor=none;fillColor=none;align=center;verticalAlign=middle;whiteSpace=wrap;rounded=0;" vertex="1" parent="1">
          <mxGeometry x="510" y="230" width="120" height="40" as="geometry" />
        </mxCell>
        <mxCell id="ax_5soUSioLsxwY-F-cs-7" value="" style="aspect=fixed;perimeter=ellipsePerimeter;html=1;align=center;shadow=0;dashed=0;spacingTop=3;image;image=img/lib/active_directory/generic_node.svg;" vertex="1" parent="1">
          <mxGeometry x="740" y="200" width="81.63" height="80" as="geometry" />
        </mxCell>
        <mxCell id="ax_5soUSioLsxwY-F-cs-11" value="" style="aspect=fixed;perimeter=ellipsePerimeter;html=1;align=center;shadow=0;dashed=0;spacingTop=3;image;image=img/lib/active_directory/generic_node.svg;" vertex="1" parent="1">
          <mxGeometry x="310" y="210" width="81.63" height="80" as="geometry" />
        </mxCell>
        <mxCell id="ax_5soUSioLsxwY-F-cs-17" value="" style="endArrow=classic;startArrow=classic;html=1;entryX=0;entryY=0.5;entryDx=0;entryDy=0;exitX=0.875;exitY=0.5;exitDx=0;exitDy=0;exitPerimeter=0;" edge="1" parent="1" source="ax_5soUSioLsxwY-F-cs-4" target="ax_5soUSioLsxwY-F-cs-7">
          <mxGeometry width="50" height="50" relative="1" as="geometry">
            <mxPoint x="580" y="300" as="sourcePoint" />
            <mxPoint x="630" y="250" as="targetPoint" />
          </mxGeometry>
        </mxCell>
        <mxCell id="ax_5soUSioLsxwY-F-cs-18" value="" style="endArrow=classic;startArrow=classic;html=1;" edge="1" parent="1" source="ax_5soUSioLsxwY-F-cs-11">
          <mxGeometry width="50" height="50" relative="1" as="geometry">
            <mxPoint x="410" y="300" as="sourcePoint" />
            <mxPoint x="470" y="250" as="targetPoint" />
            <Array as="points" />
          </mxGeometry>
        </mxCell>
        <mxCell id="ax_5soUSioLsxwY-F-cs-20" value="" style="edgeStyle=orthogonalEdgeStyle;rounded=0;orthogonalLoop=1;jettySize=auto;html=1;" edge="1" parent="1" source="ax_5soUSioLsxwY-F-cs-19" target="ax_5soUSioLsxwY-F-cs-11">
          <mxGeometry relative="1" as="geometry" />
        </mxCell>
        <mxCell id="ax_5soUSioLsxwY-F-cs-19" value="" style="outlineConnect=0;dashed=0;verticalLabelPosition=bottom;verticalAlign=top;align=center;html=1;shape=mxgraph.aws3.management_console;fillColor=#D2D3D3;gradientColor=none;" vertex="1" parent="1">
          <mxGeometry x="300" y="60" width="63" height="63" as="geometry" />
        </mxCell>
        <mxCell id="ax_5soUSioLsxwY-F-cs-21" value="Geth Client" style="text;strokeColor=none;fillColor=none;html=1;fontSize=24;fontStyle=1;verticalAlign=middle;align=center;" vertex="1" parent="1">
          <mxGeometry x="281.5" y="30" width="100" height="40" as="geometry" />
        </mxCell>
        <mxCell id="ax_5soUSioLsxwY-F-cs-22" value="" style="shape=image;verticalLabelPosition=bottom;labelBackgroundColor=#ffffff;verticalAlign=top;aspect=fixed;imageAspect=0;image=data:image/svg+xml,PHN2ZyB4bWxucz0iaHR0cDovL3d3dy53My5vcmcvMjAwMC9zdmciIHhtbG5zOnhsaW5rPSJodHRwOi8vd3d3LnczLm9yZy8xOTk5L3hsaW5rIiB2aWV3Qm94PSIwIDAgMjY1LjM5MDAxNDY0ODQzNzUgMjc5LjEwMzQyNDA3MjI2NTYiIHdpZHRoPSIyNjUuMzkwMDE0NjQ4NDM3NSIgaGVpZ2h0PSIyNzkuMTAzNDI0MDcyMjY1NiI+PGRlZnM+PHN0eWxlPi5jbHMtMXtmaWxsOiNmZmY7fS5jbHMtMntmaWxsOiM1ZTQ2NGQ7fS5jbHMtM3ttYXNrOnVybCgjbWFzayk7fS5jbHMtNHtmaWxsOiMzZmUwYzU7fTwvc3R5bGU+PG1hc2sgaWQ9Im1hc2siIHg9IjAiIHk9IjIwLjEzIiB3aWR0aD0iMjY1LjM5IiBoZWlnaHQ9IjI1OS4wMiIgbWFza1VuaXRzPSJ1c2VyU3BhY2VPblVzZSI+PGcgaWQ9Im1hc2stNCI+PHBvbHlnb24gaWQ9InBhdGgtMyIgY2xhc3M9ImNscy0xIiBwb2ludHM9IjAgMjAuMTMgMjY1LjM5IDIwLjEzIDI2NS4zOSAyNzkuMTUgMCAyNzkuMTUgMCAyMC4xMyIvPjwvZz48L21hc2s+PC9kZWZzPjx0aXRsZT50cnVmZmxlLWxvZ28tZGFyazwvdGl0bGU+PGcgaWQ9IkxheWVyXzIiIGRhdGEtbmFtZT0iTGF5ZXIgMiI+PGcgaWQ9IkxheWVyXzgiIGRhdGEtbmFtZT0iTGF5ZXIgOCI+PHBvbHlnb24gaWQ9IkZpbGwtMTIiIGNsYXNzPSJjbHMtMiIgcG9pbnRzPSIwIDI0MC4yOCAyMC45NSAyNDAuMjggMjAuOTUgMjQ3LjM5IDE0LjA1IDI0Ny4zOSAxNC4wNSAyNzguMTkgNi43MyAyNzguMTkgNi43MyAyNDcuMzkgMCAyNDcuMzkgMCAyNDAuMjgiLz48cGF0aCBpZD0iRmlsbC0xNCIgY2xhc3M9ImNscy0yIiBkPSJNNDYuMzEsMjU1LjFINTAuNnEzLjQ1LDAsNC43NC0uOWEzLjQxLDMuNDEsMCwwLDAsMS4zLTNBMy43MSwzLjcxLDAsMCwwLDU2LDI0OWEzLjU1LDMuNTUsMCwwLDAtMS43Mi0xLjMzLDEzLjMzLDEzLjMzLDAsMCwwLTQtLjRoLTRabS03LjIyLTE0LjgyaDkuNjhxNi4yOCwwLDguOTUsMS4xMkE5LjE4LDkuMTgsMCwwLDEsNjIsMjQ1LjEzYTExLjI5LDExLjI5LDAsMCwxLDEuNjMsNi4xNSwxMC40MywxMC40MywwLDAsMS0xLjgsNi4yNSwxMC44NCwxMC44NCwwLDAsMS01LjM5LDMuODFsOSwxNi44NUg1Ny41M0w0OSwyNjIuMTRINDYuMzF2MTYuMDVIMzkuMDlaIi8+PGcgY2xhc3M9ImNscy0zIj48cGF0aCBpZD0iRmlsbC0xNiIgY2xhc3M9ImNscy0yIiBkPSJNODMuNzcsMjQwLjI4SDkxVjI2NC44YTEyLjY4LDEyLjY4LDAsMCwwLC41Niw0LjQ4LDQuMzEsNC4zMSwwLDAsMCwxLjgzLDIuMDksNS42OSw1LjY5LDAsMCwwLDMuMDguNzksNiw2LDAsMCwwLDMuMjgtLjg3LDQuNjQsNC42NCwwLDAsMCwxLjkxLTIuMjMsMTYuNiwxNi42LDAsMCwwLC41My01LjE3VjI0MC4yOGg3LjI0djIyLjZhMzIuNzcsMzIuNzcsMCwwLDEtLjY0LDcuOTQsMTEuMjMsMTEuMjMsMCwwLDEtMi40Niw0LjI4LDExLjQyLDExLjQyLDAsMCwxLTQuMTksMywxNC4wNSwxNC4wNSwwLDAsMS01LjUyLDEsMTMuMzgsMTMuMzgsMCwwLDEtNy4xOC0xLjksMTEuMDYsMTEuMDYsMCwwLDEtNC4zNy00Ljc0cS0xLjMxLTIuODUtMS4zMS05LjYzWiIvPjwvZz48cG9seWdvbiBpZD0iRmlsbC0xOSIgY2xhc3M9ImNscy0yIiBwb2ludHM9IjEzMS4yOCAyNDAuMjggMTUwLjEgMjQwLjI4IDE1MC4xIDI0Ny4zMSAxMzguNDUgMjQ3LjMxIDEzOC40NSAyNTQuMiAxNTAuMSAyNTQuMiAxNTAuMSAyNjEuMTMgMTM4LjQ1IDI2MS4xMyAxMzguNDUgMjc4LjE5IDEzMS4yOCAyNzguMTkgMTMxLjI4IDI0MC4yOCIvPjxwb2x5Z29uIGlkPSJGaWxsLTIxIiBjbGFzcz0iY2xzLTIiIHBvaW50cz0iMTcwLjA3IDI0MC4yOCAxODguODkgMjQwLjI4IDE4OC44OSAyNDcuMzEgMTc3LjI0IDI0Ny4zMSAxNzcuMjQgMjU0LjIgMTg4Ljg5IDI1NC4yIDE4OC44OSAyNjEuMTMgMTc3LjI0IDI2MS4xMyAxNzcuMjQgMjc4LjE5IDE3MC4wNyAyNzguMTkgMTcwLjA3IDI0MC4yOCIvPjxwb2x5Z29uIGlkPSJGaWxsLTIzIiBjbGFzcz0iY2xzLTIiIHBvaW50cz0iMjA4LjggMjQwLjI4IDIxNi4wMiAyNDAuMjggMjE2LjAyIDI3MS4zMSAyMjYuNTMgMjcxLjMxIDIyNi41MyAyNzguMTkgMjA4LjggMjc4LjE5IDIwOC44IDI0MC4yOCIvPjxwb2x5Z29uIGlkPSJGaWxsLTI1IiBjbGFzcz0iY2xzLTIiIHBvaW50cz0iMjQ0LjcgMjQwLjI4IDI2NS4zOSAyNDAuMjggMjY1LjM5IDI0Ny4zNCAyNTEuODYgMjQ3LjM0IDI1MS44NiAyNTQuMiAyNjUuMzkgMjU0LjIgMjY1LjM5IDI2MS4xMyAyNTEuODYgMjYxLjEzIDI1MS44NiAyNzEuMTEgMjY1LjM5IDI3MS4xMSAyNjUuMzkgMjc4LjE5IDI0NC43IDI3OC4xOSAyNDQuNyAyNDAuMjgiLz48ZWxsaXBzZSBjbGFzcz0iY2xzLTIiIGN4PSIxMzIuNDUiIGN5PSIxMDIuMTQiIHJ4PSIxMDAuOTYiIHJ5PSIxMDIuMTQiLz48cGF0aCBpZD0iRmlsbC02IiBjbGFzcz0iY2xzLTEiIGQ9Ik0xMDAuNywxOTIuNzFjNC4xMywxLjQxLDE4LDUuOTIsMTguNTksMS41MS4zMi0yLjQyLTctNC45LTE2LjkxLTEwLjE1YTE1OSwxNTksMCwwLDEtMzguMjUtMjguMjZBODcuODIsODcuODIsMCwwLDEsMzcuODEsOTQuNzVjLS44NC0zMC45LDExLjI0LTU1Ljg4LDMxLjExLTcyYTEwMS44OCwxMDEuODgsMCwwLDAtMzkuNiw3OC4xNWMtLjU5LDIyLjM1LDUuNjYsNDEuMTgsMTcuNCw1OC4zMkE2Ni41LDY2LjUsMCwwLDAsNTkuMzksMTcxLjdjMTEuMjUsOC41MSwyNy43LDE2LjM4LDQxLjMxLDIxIi8+PHBhdGggaWQ9IkZpbGwtOCIgY2xhc3M9ImNscy0xIiBkPSJNMjM0LjgsNzguNzNjLTYuMjYtMjkuNDQtMjUuNzItNTAuMDUtNTEuNzUtNjQuNjFDMjAzLDI4LjI5LDIzMSw1OC40MiwyMTQuNDUsODVjLTE0LDIxLjI5LTQ4LDE3LjEyLTY2LjY1LDdDMTI1LjY4LDgwLDk4LDUzLDEyNS4zLDI2LjYxYzE3LjctMTcuMDgsNzQsMi4wNyw2NC4wOSwyNy42LTUuNzgsMTQuODUtMjguMjgsMTEuNTUtMzguNCw0LjI5LTcuNDYtNS4zNi0xMy43NC0xNC41Ny0xMC40MS0yNC4wOCwxLjA2LTMuMDUuOTEtNy43OC0zLjQtNC4zQzEzNCwzMi43MiwxMzIuMzUsMzcsMTMxLjc5LDQxYy00LjcxLDMzLjI5LDU0LjYsNTkuMSw3Mi4yLDI2Ljg5LDkuMTMtMTYuNzItNS42Ny00MS0yNC4zLTUwLjk0LTE0LTcuNS0yOC41Ny0xMi43Ny00Ni40My0xMS40OS0yOC41NiwyLTUyLjUyLDE5LjktNTUuNTMsNDkuMDgtMywyOSwxNi4zOSw1NS4xLDM5LjIyLDcwLjcxLDI0LDE2LjQsNTYuMjYsMjcuMjEsODUuNzgsMTcuNDMsMjYuNDYtOC43NywzNy4zOS0zOS4xNCwzMi4wNy02My45MyIvPjxwYXRoIGlkPSJGaWxsLTEwIiBjbGFzcz0iY2xzLTQiIGQ9Ik0xOTcuNTYsNTYuMThDMjAwLjQsMzcuMSwxODMuMTUsMjQsMTY3LjIyLDE4LjA1Yy0xOC43OC03LTQzLjU5LTMuOTQtNTcuMjcsMTEuNjEtMTAsMTEuNDItOS4zNSwyOC00LjE5LDQxLjQyLDcuOCwyMC4yNywyNS40MSwzNC45Miw0NS45MSw0MS4yNSwxNC41Nyw0LjUsMzIuMTgsNi40Niw0Ni45NCwxLjcxLDIxLjUzLTYuOTMsMjguNTQtMjkuMzgsMjQuMDktNDkuOTVhNTkuMDgsNTkuMDgsMCwwLDAtNC4zNi0xMi44OGMtMi43Mi01LjcxLTExLjA1LTE3LjI3LjQzLTMuMTlhNDkuNyw0OS43LDAsMCwxLDMuMzIsNC45MSw1NS4yLDU1LjIsMCwwLDEsNS41OSwxMi40MWM2LjI2LDE5LjIsMS4zNSw0MS42LTE2LDUzLjE5LTEzLjMxLDguODctMzAuMjMsOS45My00NS42Nyw3LjcxLTIwLjctMy00MC4yMS0xMy01My43Ny0yOS4wOS0xMi4zOC0xNC42Ny0yMC44My0zNS43NC0xNS43NC01NSwzLjczLTE0LjA5LDE1LjE3LTI0LjYxLDI4Ljg3LTI5LDE3LjMzLTUuNjEsMzYuNDEtMyw1Miw2LjExLDcuODIsNC41NSwxNSwxMC44NSwxOSwxOS4xMWEyOC4zNSwyOC4zNSwwLDAsMSwyLjg1LDExLjkzLDI0LjczLDI0LjczLDAsMCwxLS4zOSw1Yy0uMTEuNi0xLjM4LDIuMjktMS4yLjkiLz48L2c+PC9nPjwvc3ZnPg==;" vertex="1" parent="1">
          <mxGeometry x="310" y="358.94" width="80" height="84.23" as="geometry" />
        </mxCell>
        <mxCell id="ax_5soUSioLsxwY-F-cs-24" value="" style="endArrow=classic;startArrow=classic;html=1;entryX=0.5;entryY=1;entryDx=0;entryDy=0;" edge="1" parent="1" target="ax_5soUSioLsxwY-F-cs-11">
          <mxGeometry width="50" height="50" relative="1" as="geometry">
            <mxPoint x="350" y="360" as="sourcePoint" />
            <mxPoint x="400" y="310" as="targetPoint" />
          </mxGeometry>
        </mxCell>
        <mxCell id="ax_5soUSioLsxwY-F-cs-25" value="Node" style="text;strokeColor=none;fillColor=none;html=1;fontSize=24;fontStyle=1;verticalAlign=middle;align=center;" vertex="1" parent="1">
          <mxGeometry x="730.8199999999999" y="290" width="100" height="40" as="geometry" />
        </mxCell>
      </root>
    </mxGraphModel>
  </diagram>
</mxfile>
